/* XPM */
static char *b3131f143af04ef3cf3085f31b123f25aSnH5AwWf4UrVLVp[] = {
/* columns rows colors chars-per-pixel */
"105 105 67 1 ",
"  c None",
". c gray53",
"X c #878C8C",
"o c #8A8D8D",
"O c #8B8D8D",
"+ c #879191",
"@ c #879696",
"# c #879B9C",
"$ c #919999",
"% c #87A0A1",
"& c #87A5A6",
"* c #8BA1A2",
"= c #87AAAC",
"- c #9AACAC",
"; c #9CADAD",
": c #87AFB1",
"> c #86B4B6",
", c #86B9BB",
"< c #86BEC1",
"1 c #89BFC1",
"2 c #86C3C6",
"3 c #8FC1C3",
"4 c #86C8CB",
"5 c #91C7C9",
"6 c #86CDD0",
"7 c #86D2D6",
"8 c #86D7DB",
"9 c #89D9DC",
"0 c #8AD9DC",
"q c #8DDADD",
"w c #8EDADD",
"e c #91DBDF",
"r c #93DBDE",
"t c #92DCDF",
"y c #94DCDF",
"u c #95DCDF",
"i c #A6C0C0",
"p c #ABC6C6",
"a c #96DDE0",
"s c #98DEE0",
"d c #9ADFE1",
"f c #9BDFE1",
"g c #9EE0E2",
"h c #A0E1E2",
"j c #A3E1E3",
"k c #A3E2E3",
"l c #A7E3E5",
"z c #A9E4E5",
"x c #AAE4E6",
"c c #ABE5E6",
"v c #ADE5E7",
"b c #AEE6E6",
"n c #AFE6E7",
"m c #B2E6E7",
"M c #BFE2E1",
"N c #BCE6E6",
"B c #B1E7E8",
"V c #B3E8E8",
"C c #B4E8E8",
"Z c #B7E9E9",
"A c #B8E9EA",
"S c #BBEBEA",
"D c #BCEBEB",
"F c #BFECEC",
"G c #C0ECEC",
"H c #C3EEED",
"J c #C7EFEE",
/* pixels */
"888888888888888888888888888888888888888888888888888888888888888888888888888888888888888888888888888888888",
"888888888888888888888888888888888888888888888888888888888888888888888888888888888888888888888888888888888",
"888888888888888888888888888888888888888888888888888888888888888888888888888888888888888888888888888888888",
"888888888888888888888888888888888888888888888888888888888888888888888888888888888888888888888888888888888",
"888888888888888888888888888888888888888888888888888888888888888888888888888888888888888888888888888888888",
"888888888888888888888888888888888888888888888888888888888888888888888888888888888888888888888888888888888",
"888888888888888888888888888888888888888888888888888888888888888888888888888888888888888888888888888888888",
"888888888888888888888888888888888888888888888888888888888888888888888888888888888888888888888888888888888",
"888888888888888888888888888888888888888888888888888888888888888888888888888888888888888888888888888888888",
"888888888888888888888888888888888888888888888888888888888888888888888888888888888888888888888888888888888",
"888888888888888888888888888888888888888888888888888888888888888888888888888888888888888888888888888888888",
"888888888888888888888888888888888888888888888888888888888888888888888888888888888888888888888888888888888",
"888888888888888888888888888888888888888888888888888888888888888888888888888888888888888888888888888888888",
"888888888888888888888888888888888888888888888888888888888888888888888888888888888888888888888888888888888",
"888888888888888888888888888888888888888888888888888888888888888888888888888888888888888888888888888888888",
"888888888888888888888888888888888888888888888888888888888888888888888888888888888888888888888888888888888",
"8888888888888888888888888888888888888888888888888888888888888887>###&288888888888888888888888888888888888",
"888888888888888888888888888888888888888888888888888888888888884X......&8888888888888888888888888888888888",
"88888888888888888888888888888888888888888888888888888888888886X........&888888888888888888888888888888888",
"8888888888888888888888888888888888888888888888888888888888888&..........288888888888888888888888888888888",
"8888888888888888888888888888888888888888888888888888888888887...........&88888888888888888888888888888888",
"888888888888888888888888888888888888888888888888888888888888,...........X88888888888888888888888888888888",
"888888888888888888888888888888888888888888888888888888888888%............<8888888888888888888888888888888",
"888888qxAGGGAlq888888888888yxDGGGCj9888888888888ybDGGGCj9887.............;Gmf8888888888889jCGGGGbf8888888",
"88888lGGGGGGGGGj8888888889xGGGGGGGGDf8888888889mGGGGGGGGAy8,.............OGGGCe888888888yAGGGGGGGGm988888",
"8889mGGAfe8ejAGGb9888888eCGGmfq8yjDGGl8888888eDGGmfq8ylDGGj%..............5xGGDf8888888jGGDly8qfbGGDy8888",
"89fDGGj8888889xGGAf988qjDGGj8888889bGGCf888qxGGDf888888qCGN...............=8eAGGbe888fmGGCq888888fDGGxq88",
"GGGGDf888888888fDGGGGGGGGAe888888888jGGGGGGGGGCe888888889lp...............+889bGGGGGGGGGx988888888qCGGGGb",
"GGDl988888888888qxDGGGGAj988888888888exGGGGGAf888888888888*................4888fCGGGGGmy888888888888fAGGb",
"ye88888888888888888eyyq88888888888888888yyyq88888888888887.................=888889yyy888888888888888889ye",
"888888888888888888888888888888888888888888888888888888888<.................+88888888888888888888888888888",
"888888888888888888888888888888888888888888888888888888888&..................48888888888888888888888888888",
"888888888888888888888888888888888888888888888888888888888X..................=8888888888888888888888888888",
"888888888888888888888888888888888888888888888888888888882...................+8888888888888888888888888888",
"88888888888888888888888888888888888888888888888888888888:....................8888888888888888888888888888",
"88888888888888888888888888888888888888888888888888888888:....................8888888888888888888888888888",
"888888888888888888888888888888888888888888888888888888882...................@8888888888888888888888888888",
"888888888888888888888888888888888888888888888888888888888+..................>8888888888888888888888888888",
"888888888888888888888888888888888888888888888888888888888<.................@88888888888888888888888888888",
"8888888888888888888888888888888888888888888888888888888888,...............@788888888888888888888888888888",
"888888888888888888888888888888888888888888888888888888888886&@..........#,8888888888888888888888888888888",
"888888888888888888888888888888888888888888888888888888888888888888888888888888888888888888888888888888888",
"888888888888888888888888888888888888888888888888888888888888888888888888888888888888888888888888888888888",
"888888888888888888888888888888888888888888888888888888888888888888888888888888888888888888888888888888888",
"888888888888888888888888888888888888888888888888888888888888888888888888888888888888888888888888888888888",
"888888888888888888888888888888888888888888888888888888888888888888888888888888888888888888888888888888888",
"888888888888888888888888888888888888888888888888888888888888888888888888888888888888888888888888888888888",
"888888888888888888888888888888888888888888888888888888888888888888888888888888888888888888888888888888888",
"888888888888888888888888888888888888888888888888888888888888888888888888888888888888888888888888888888888",
"888888888888888888888888888888888888888888888888888888888888888888888888888888888888888888888888888888888",
"888888888888888888888888888888888888888888888888888888888888888888888888888888888888888888888888888888888",
"888888888888888888888888888888888888888888888888888888888888888888888888888888888888888888888888888888888",
"888888888888888888888888888888888888888888888888888888888888888888888888888888888888888888888888888888888",
"888888888888888888888888888888888888888888888888888888888888888888888888888888888888888888888888888888888",
"888888888888888888888888888888888888888888888888888888888888888888888888888888888888888888888888888888888",
"888888888888888888888888888888888888888888888888888888888888888888888888888888888888888888888888888888888",
"888888888888888888888888888888888888888888888888888888888888888888888888888888888888888888888888888888888",
"888888888888888888888888888888888888888888888888888888888888888888888888888888888888888888888888888888888",
"888888888888888888888888888888888888888888888888888888888888888888888888888888888888888888888888888888888",
"888888888888888888888888888888888888888888888888888888888888888888888888888888888888888888888888888888888",
"888888888888888888888888888888888888888888888888888888888888888888888888888888888888888888888888888888888",
"888888888888888888888888888888888888888888888888888888888888888888888888888888888888888888888888888888888",
"888888888888888888888888888888888888888888888888888888888888888888888888888888888888888888888888888888888",
"88888888888888888888888888888888888<:::,88888888888888888888888888888888888888888888888888888888888888888",
"8888888888888888888888888888888884@.....+2888888888888888888888888888888888888888888888888888888888888888",
"888888888888888888888888888888884X........288888888888888888888888888888888888888888888888888888888888888",
"88888888888888888888888888888888#.........+88888888888888888888888888888888888888888888888888888888888888",
"88888888888888888888888888888884...........<8888888888888888888888888888888888888888888888888888888888888",
"8888888888888888888888888888888=...........&8888888888888888888888888888888888888888888888888888888888888",
"8888888888888888888888888888888+...........X8888888888888888888888888888888888888888888888888888888888888",
"8888888888888888888888888888884.............<888888888888888888888888888888888888888888888888888888888888",
"888888888888888888888888888888>.............&888888888888888888888888888888888888888888888888888888888888",
"888888888888888888888888888888@.............X888888888888888888888888888888888888888888888888888888888888",
"888888888888888888888888888886...............<88888888888888888888888888888888888888888888888888888888888",
"88888888888888888888888888888>...............&88888888888888888888888888888888888888888888888888888888888",
"888888qxAJJJCl9888888888888qx$...............X88abFJJGCg8888888888888aVFJJGVg8888888888888gVGJJFba8888888",
"88888jJJJJJJJJGg8888888888xJM.................1bJJJJJJJJFt8888888889CJJJJJJJJAt888888888tAJJJJJJJJC988888",
"8889VJJFjaaaxGJJb98888889AJJi.................-JJCgaafbJJJg8888888tGJJCgaafbJJGf8888888fGJJbfaagCJJGt8888",
"88gFJJb9888889VJJFf8889gGJJl@.................OJj888888tAJJVt888qlJJGf888888aGJJbq888qbJJFa888888fGJJlq88",
"AJJJGg888888888jJJJJCAJJJGf6...................3888888889bJJJGCFJJJAt888888889CJJJGCGJJJC988888888tAJJJFx",
"JJJbq88888888888tVJJJJJGb98>...................=8888888888fAJJJJJFl888888888888gFJJJJJFg888888888888lFJJB",
"aa88888888888888889aaaa8888&...................#888888888888qaaat8888888888888888qaaaq8888888888888888tay",
"888888888888888888888888888%...................#888888888888888888888888888888888888888888888888888888888",
"888888888888888888888888888:...................&888888888888888888888888888888888888888888888888888888888",
"8888888888888888888888888884...................,888888888888888888888888888888888888888888888888888888888",
"8888888888888888888888888888%.................@8888888888888888888888888888888888888888888888888888888888",
"88888888888888888888888888887@...............@78888888888888888888888888888888888888888888888888888888888",
"888888888888888888888888888888:+...........X:788888888888888888888888888888888888888888888888888888888888",
"888888888888888888888888888888886222222222488888888888888888888888888888888888888888888888888888888888888",
"888888888888888888888888888888888888888888888888888888888888888888888888888888888888888888888888888888888",
"888888888888888888888888888888888888888888888888888888888888888888888888888888888888888888888888888888888",
"888888888888888888888888888888888888888888888888888888888888888888888888888888888888888888888888888888888",
"888888888888888888888888888888888888888888888888888888888888888888888888888888888888888888888888888888888",
"888888888888888888888888888888888888888888888888888888888888888888888888888888888888888888888888888888888",
"888888888888888888888888888888888888888888888888888888888888888888888888888888888888888888888888888888888",
"888888888888888888888888888888888888888888888888888888888888888888888888888888888888888888888888888888888",
"888888888888888888888888888888888888888888888888888888888888888888888888888888888888888888888888888888888",
"888888888888888888888888888888888888888888888888888888888888888888888888888888888888888888888888888888888",
"888888888888888888888888888888888888888888888888888888888888888888888888888888888888888888888888888888888",
"888888888888888888888888888888888888888888888888888888888888888888888888888888888888888888888888888888888",
"888888888888888888888888888888888888888888888888888888888888888888888888888888888888888888888888888888888",
"888888888888888888888888888888888888888888888888888888888888888888888888888888888888888888888888888888888",
"888888888888888888888888888888888888888888888888888888888888888888888888888888888888888888888888888888888",
"888888888888888888888888888888888888888888888888888888888888888888888888888888888888888888888888888888888",
"88888888888888888888888888888888888888888888888888888888888888888888888888888888888888888888888888888888 "
};
