/* XPM */
static char *d4bb259248234b3582d1c8943559d77dSxj2vGT1n9g0x25j[] = {
/* columns rows colors chars-per-pixel */
"69 65 155 2 ",
"   c None",
".  c #4C4844",
"X  c #55514C",
"o  c #55514D",
"O  c #56514D",
"+  c #5E5854",
"@  c #5F5A55",
"#  c #605A56",
"$  c #605B57",
"%  c #66615D",
"&  c #69615F",
"*  c #6A615F",
"=  c #6A6360",
"-  c #6B6460",
";  c #6F6964",
":  c #716A67",
">  c #756968",
",  c #756A69",
"<  c #756B69",
"1  c #756C69",
"2  c #7F6F6A",
"3  c #7F7372",
"4  c #7F7472",
"5  c #857370",
"6  c #8C7776",
"7  c #837C77",
"8  c #867A7A",
"9  c #89797B",
"0  c #897A7B",
"q  c #897B7B",
"w  c #8F7879",
"e  c #897C7C",
"r  c #937B7D",
"t  c #8C847F",
"y  c #9A7480",
"u  c #9A7F83",
"i  c #9B7F84",
"p  c #A17C8C",
"a  c #C27EA3",
"s  c #C77CA6",
"d  c #699696",
"f  c #749595",
"g  c #71989A",
"h  c #7A999D",
"j  c #8D8580",
"k  c #938184",
"l  c #978286",
"z  c #9D858C",
"x  c #9D868D",
"c  c #9E888D",
"v  c #9B979C",
"b  c #A1838A",
"n  c #A3818E",
"m  c #A68591",
"M  c #A88690",
"N  c #A78C95",
"B  c #A78E96",
"V  c #AE8995",
"C  c #AF8A96",
"Z  c #B3859B",
"A  c #B6829C",
"S  c #B18E9D",
"D  c #B68E9D",
"F  c #A69095",
"G  c #A79096",
"H  c #A79196",
"J  c #A89096",
"K  c #A99F9A",
"L  c #B0929D",
"P  c #B2949E",
"I  c #ACA19C",
"U  c #829BA1",
"Y  c #8A9CA5",
"T  c #929EA8",
"R  c #9B9FAC",
"E  c #BC8AA2",
"W  c #A592A7",
"Q  c #BC92A3",
"!  c #BD92A3",
"~  c #BB97A6",
"^  c #B298A0",
"/  c #BC9AA7",
"(  c #BC9CA8",
")  c #A3A1AF",
"_  c #B4A9A3",
"`  c #BDAEAC",
"'  c #BEB0AC",
"]  c #BEB2AD",
"[  c #ABA2B3",
"{  c #B4A4B7",
"}  c #BCA5BA",
"|  c #C685A6",
" . c #CA8AAB",
".. c #CC89AD",
"X. c #D088AF",
"o. c #C496AA",
"O. c #C59CAE",
"+. c #C59EAF",
"@. c #C999AF",
"#. c #CF8FB0",
"$. c #D28EB2",
"%. c #D58EB5",
"&. c #CA9AB0",
"*. c #D493B5",
"=. c #D19EB6",
"-. c #D699B8",
";. c #C6A1B0",
":. c #CBA1B4",
">. c #C1A6BD",
",. c #C4A7BE",
"<. c #C5A7BE",
"1. c #D0A3B7",
"2. c #D0A5B8",
"3. c #D8A2BD",
"4. c #D9A4BF",
"5. c #D8A6BF",
"6. c #D4B4BE",
"7. c #CCA8C2",
"8. c #D2A6C3",
"9. c #DAA7C0",
"0. c #DFA6C3",
"q. c #D3A9C4",
"w. c #D5AAC5",
"e. c #DAAAC0",
"r. c #DDA8C3",
"t. c #DDABC9",
"y. c #DBBAC4",
"u. c #E3A8C7",
"i. c #E3AAC8",
"p. c #E2ABC8",
"a. c #E6AACA",
"s. c #E1ACCB",
"d. c #E3ACCC",
"f. c #E5ADCD",
"g. c #EAAACD",
"h. c #E9ADCE",
"j. c #EDAED0",
"k. c #EDB1D1",
"l. c #EEB5D2",
"z. c #EEB8D2",
"x. c #EEBBD3",
"c. c #EFBFD4",
"v. c #D3C6C0",
"b. c #EFC2D5",
"n. c #F0C9D7",
"m. c #F0CBD7",
"M. c #F0CFD8",
"N. c #F0D3D9",
"B. c #F0D5D9",
"V. c #F1D6DA",
"C. c #F1D8DA",
"Z. c #F1D9DB",
"A. c #F1DDDB",
"S. c #F2E0DC",
"D. c #F2E3DD",
/* pixels */
"                  j.j.j.j.j.j.j.j.j.                                                                                                      ",
"  D.          %.s g.j.j.j.j.j.j.j.j.j.j.j.                                                                                                ",
"D.D.D.        j.X.s g.j.j.j.j.j.j.j.j.j.j.j.j.                                                                                            ",
"D.D.D.        j.j.X.s g.j.j.j.j.j.j.j.j.j.j.j.j.j.                                                                                        ",
"D.D.D.      j.j.j.j.X.s g.j.j.j.j.j.j.j.j.j.0.! D D !                                                                                     ",
"D.D.D.I     q.j.j.j.j.X.s g.&.M b D &.=.! r 2 2 2 2 2 2 i                                                                                 ",
"  K $ .     <.j.j.j.j.j.X.y 2 2 2 2 2 2 2 2 2 2 2 2 2 2 2 w                                                                               ",
"  @ . . @   >.j.j.j.j.j.o.2 2 2 2 2 2 2 2 2 2 2 2 2 2 2 2 2 @.                                                                            ",
"  t . . . 7 >.j.j.j.j.j.u 2 2 2 2 2 2 2 2 2 2 2 2 2 2 5 D 0.j.j.j.                                                                        ",
"    ; . . . v j.j.j.j.j.2 2 2 2 2 2 2 2 2 2 2 2 2 2 b a.j.j.j.j.j.j.                                                                      ",
"      O . . % u.j.j.j.j.6 2 2 2 2 2 2 2 2 2 2 2 2 ! j.j.j.j.j.j.j.j.j.                                                                    ",
"      j . . . 8 j.j.j.j.M 2 2 2 2 2 2 2 2 2 2 5 =.j.j.2.+.1.j.j.j.j.j.j.                                                                  ",
"        ; . . . z j.j.j.0.5 2 2 2 2 2 2 2 2 r 3.9.0 O . . . $ z i.j.j.j.j.                                                                ",
"          O . . . 0 i.j.j.&.5 2 2 2 2 2 2 V r.k . . . . . . . . $ +.j.j.j.j.                                                              ",
"            . . . . $ ( j.j.a.! u u u V | p O . . . . . . . . . . . k u.j.j.j.                                                            ",
"            t O . . . . = ^ 9.j.j.j.j.S < . . . . . . . . . . . . . . $ +.j.j.j.                                                          ",
"                O . . . . . . $ < * . . . . . . . . . . . . . . . . . . . k i.j.j.                                                        ",
"                f : . . . . . . . . . . . . . . . . . . . . . . k $ . . . . $ +.j.j.                                                      ",
"                  g F O . . . . . . . . . . . . . . . . . . . . = i.c O . . . . k i.j.                                                    ",
"                  d R 9.< . . . . . . . . . . . . . . . . . . . . = i.9.< . . . . $ 1.j.                                                  ",
"                    d 7.j./ $ . . . . . . . . . . . . . . . . . . . = i.j.P O . . . . B j.                                                ",
"                    d U j.j.j.J O . . . . . . . . . . . . . . . . . . = i.j.i.e . . . . 0 i.                                              ",
"                      d [ j.j.j.i.c O . . . . . . . . . . . . . . . . . = 5.j.j.+.$ . . . = 5.                                            ",
"                        d w.j.j.j.j.k.P $ . . . . . . . . . . . . . . . . O 1.j.j.i.e . . . O :.                                          ",
"                        d h f.j.j.j.j.j.j.P $ . . . . . . . . . . . . . . . . B j.j.j.P O . . . F                                         ",
"                          d R j.j.j.j.j.j.j.k.c . . . . . . . . . . . . . . . . < i.j.j.1.O . . . 6.                                      ",
"                            d { j.j.j.j.j.j.j.j.1.= . . . . . . . . . . . . . . . O 1.j.j.1.= . _ D.m.                                    ",
"                            d d 7.j.j.j.j.j.j.j.j.i.e . . . . . . . . . . . . . . . . P j.j.i.` D.D.D.                                    ",
"                              d g w.j.j.j.j.j.j.j.j.j.0 . . . . . . . . . . . . . . . . P j.j.z.D.D.D.m.                                  ",
"                                d h f.j.j.j.j.j.j.j.j.j.0 . . . . . . . . . . . . . . . . P j.j.k.k.Z.m.j.                                ",
"                                  d U f.j.j.j.j.j.j.j.j.j.3 . . . . . . . . . . . . . . . . ~ j.j.j.j.l.j.                                ",
"                                    d U j.j.j.j.j.j.j.j.j.i.$ . . . . . . . . . . . . . . . O 1.j.j.j.j.j.j.                              ",
"                                      d R j.j.j.j.j.j.j.j.j.1.. . . . . . . . . . . . . . . . $ i.j.j.j.j.j.j.                            ",
"                                      d d R j.j.j.j.j.j.j.j.j.c . . . . . . . * l . . . . . . . 3 j.j.j.j.j.j.j.                          ",
"                                        d d R j.j.j.j.j.j.j.j.j.= . . . . . . . m n . . . . . . . B j.j.j.j.j.j.                          ",
"                                          d d R j.j.j.j.j.j.j.j.1.O . . . . . . . m n . . . . . . O 1.j.j.j.j.j.j.                        ",
"                                            d d T f.j.j.j.j.j.j.j.P . . . . . . . . Z n O . . . . . $ i.j.j.j.j.j.j.                      ",
"                                              d d U f.j.j.j.j.j.j.j.P . . . . . . . O E A O . . . . . = j.j.j.j.j.j.j.                    ",
"                                                d d U f.j.j.j.j.j.j.j.P . . . . . . . O E A O . . . . . 0 j.j.j.j.j.j.                    ",
"                                                  d d h w.j.j.j.j.j.j.j.P . . . . . . . O E A O . . . . . z j.j.j.j.j.j.                  ",
"                                                      d g w.j.j.j.j.j.j.j.;.O . . . . . . O  .A = . . . . . P j.j.j.j.j.                  ",
"                                                        d d } j.j.j.j.j.j.j.1.= . . . . . . =  .a = . . . . . 1.j.j.j.j.j.                ",
"                                                          d d ) j.j.j.j.j.j.j.i.k . . . . . . =  .a = . . . . O 1.j.j.j.j.j.              ",
"                                                            d d T f.j.j.j.j.j.j.j./ O . . . . . =  .a = . . . . = i.j.j.j.j.              ",
"                                                              d d U w.j.j.j.j.j.j.j.1.= . . . . . < X.a 0 . . . . < j.j.j.j.j.            ",
"                                                                d d g <.j.j.j.j.j.j.j.i.1 . . . . . 0 X.s 0 . . . . 0 j.j.j.j.j.          ",
"                                                                    d d ) j.j.j.j.j.j.j.j.0 . . . . . 0 X.s 0 . . . . P j.j.j.j.          ",
"                                                                      d d U t.j.j.j.j.j.j.j.B . . . . . 0 X.s 0 . . . . 1.j.j.j.j.        ",
"                                                                        d d g <.j.j.j.j.j.j.j.P O . . . . 0 X.s 0 . . . O 1.j.j.j.        ",
"                                                                          d d d ) f.j.j.j.j.j.j.1.O . . . . z X.s F . . . ' z.j.j.j.      ",
"                                                                              d d U w.j.j.j.j.j.j.e.= . . . . P X.s L . _ D.D.z.j.j.      ",
"                                                                                d d d [ j.j.j.j.j.j.i.4 . . . . P X.s y.D.D.D.D.z.j.j.    ",
"                                                                                  d d d U w.j.j.j.j.j.j.k . . . . P X.s Z.D.D.D.B.j.j.    ",
"                                                                                      d d d [ j.j.j.j.j.j.P . . O ' M.$...D.D.D.A.j.j.    ",
"                                                                                        d d d U 7.j.j.j.j.j.1.- v.D.D.Z.-.#.D.D.N.j.j.j.  ",
"                                                                                            d d d R f.j.j.j.j.z.D.D.D.D.D.*.#.B.z.j.j.j.  ",
"                                                                                              d d d g { j.j.j.j.c.D.D.D.D.Z.$.s g.j.j.j.  ",
"                                                                                                  d d d h <.j.j.j.b.D.D.D.D.l.X.s g.j.j.h.",
"                                                                                                      d d d Y 7.j.j.l.m.b.l.j.j.X.s g.j.s.",
"                                                                                                        d d d d Y 7.j.j.j.j.j.j.j.X.s g.d.",
"                                                                                                            d d d d h } f.j.j.j.j.j.X.s 8.",
"                                                                                                                d d d d g R <.f.j.j.j.X.W ",
"                                                                                                                    d d d d d d U Y Y h d ",
"                                                                                                                          d d d d d d d d ",
"                                                                                                                                d d d     "
};
