/* XPM */
static char *_7adf3a0e3f840a4ebf3bfe632b73ef1uc8HGZske2Qae56T[] = {
/* columns rows colors chars-per-pixel */
"105 105 37 1 ",
"  c None",
". c #86D7DB",
"X c #89D8DC",
"o c #8BD9DD",
"O c #8CD9DD",
"+ c #8EDBDD",
"@ c #8FDBDD",
"# c #91DBDD",
"$ c #90DADE",
"% c #91DBDE",
"& c #92DCDE",
"* c #93DCDE",
"= c #95DDDF",
"- c #96DDDF",
"; c #98DEE0",
": c #9ADEE0",
"> c #9CDFE1",
", c #9FE1E1",
"< c #9FE1E2",
"1 c #A1E1E2",
"2 c #A1E2E2",
"3 c #A2E2E2",
"4 c #A4E2E3",
"5 c #A4E3E3",
"6 c #A5E3E3",
"7 c #A7E3E4",
"8 c #A7E4E4",
"9 c #A8E4E4",
"0 c #AAE4E4",
"q c #ABE5E5",
"w c #ABE6E4",
"e c #AEE7E5",
"r c #AEE6E6",
"t c #B1E8E6",
"y c #B2E8E7",
"u c #B4E9E7",
"i c #B7EAE8",
/* pixels */
".........................................................................................................",
".........................................................................................................",
".........................................................................................................",
".........................................................................................................",
".........................................................................................................",
".........................................................................................................",
".........................................................................................................",
".........................................................................................................",
".........................................................................................................",
".........................................................................................................",
".........................................................................................................",
".........................................................................................................",
".........................................................................................................",
".........................................................................................................",
".........................................................................................................",
".........................................................................................................",
".........................................................................................................",
".........................................................................................................",
".........................................................................................................",
".........................................................................................................",
".........................................................................................................",
".........................................................................................................",
".........................................................................................................",
"......o2wyyyw,o............#2eyyyw>o............#4eyyyw:o............-7yyyy7-............o:wyyyy4-.......",
".....,yyyyyyyyy:.........o2yyyyyyyye-.........o7yyyyyyyyw#.........+wyyyyyyyyw+.........#wyyyyyyyy7o.....",
"...o7yyw-+.+:wyy4o......+wyy7-o.#>eyy,.......+eyy7*o.#,eyy:.......*eyy2#oo#2yye-.......:yye,#.o*4yye#....",
".o-eyy>......o2yyw-o..o>eyy:......o4yyw*...o2yye*......owyy7*...+2yyw+......+wyy4+...*7yywo......*eyy2o..",
"yyyye*.........-eyyyyyyyyw+.........>yyyyyyyyyw+........o,yyyyyyyyy7o........o4yyyyyyyyy2o........owyyyy4",
"yye,o...........o2eyyyyw>o...........+2yyyyyw-............#4yyyyyw-............-wyyyyy7#............-wyy4",
"#+.................+##o.................###o.................###o................o###.................o##",
".........................................................................................................",
".........................................................................................................",
".........................................................................................................",
".........................................................................................................",
".........................................................................................................",
".........................................................................................................",
".........................................................................................................",
".........................................................................................................",
".........................................................................................................",
".........................................................................................................",
".........................................................................................................",
".........................................................................................................",
".........................................................................................................",
".........................................................................................................",
".........................................................................................................",
".........................................................................................................",
".........................................................................................................",
".........................................................................................................",
".........................................................................................................",
".........................................................................................................",
".........................................................................................................",
".........................................................................................................",
".........................................................................................................",
".........................................................................................................",
".........................................................................................................",
".........................................................................................................",
".........................................................................................................",
".........................................................................................................",
".........................................................................................................",
".........................................................................................................",
".........................................................................................................",
".........................................................................................................",
".........................................................................................................",
".........................................................................................................",
".........................................................................................................",
".........................................................................................................",
".........................................................................................................",
".........................................................................................................",
".........................................................................................................",
".........................................................................................................",
".........................................................................................................",
".........................................................................................................",
".........................................................................................................",
".........................................................................................................",
".........................................................................................................",
"......+2eiiiw,o............+2eiiiw>o............*4yiiuw:.............*wyiiuw:.............:wuiiy4*.......",
".....>iiiiiiiiu:..........2iiiiiiiiu-.........o4iiiiiiiiy+.........owiiiiiiiie+.........+eiiiiiiiiwo.....",
"...owiiy>***2uii4o......oeiiy>***2uii,.......+eiiw:**-4iii:.......+uiiw:**-4iiu-.......-uii4-**:wiiu+....",
"..:yii4o.....owiiy-...o:uii,......+wiiw*...o,uii>......+eiiw+...+,iiu-......*uii4+...+4iiy*......-uii,+..",
"eiiiu:.........>iiiiweiiiu-.........2iiiiwyiiiy+........o4iiiuwyiiie+........owiiiuwuiiiwo........+eiiiy2",
"iii4+...........+wiiiiiu4o...........*wiiiiiu,o...........-eiiiiiy,............:yiiiiiy:............,yii8",
"**................o****................o***+................+***+................+***+................+*#",
".........................................................................................................",
".........................................................................................................",
".........................................................................................................",
".........................................................................................................",
".........................................................................................................",
".........................................................................................................",
".........................................................................................................",
".........................................................................................................",
".........................................................................................................",
".........................................................................................................",
".........................................................................................................",
".........................................................................................................",
".........................................................................................................",
".........................................................................................................",
".........................................................................................................",
".........................................................................................................",
".........................................................................................................",
".........................................................................................................",
".........................................................................................................",
".........................................................................................................",
".........................................................................................................",
".........................................................................................................",
"........................................................................................................ "
};
