/* XPM */
static char *_017e989d2ed435dd2f126bb6df53eebOIyXZizjfwAyolRP[] = {
/* columns rows colors chars-per-pixel */
"105 105 86 1 ",
"  c None",
". c #86D7DB",
"X c #87D7DB",
"o c #87D8DB",
"O c #89D8DC",
"+ c #8BD9DD",
"@ c #8CD9DD",
"# c #8FDADD",
"$ c #8EDBDD",
"% c #8FDBDD",
"& c #91DBDD",
"* c #90DADE",
"= c #91DBDE",
"- c #92DBDE",
"; c #92DCDE",
": c #93DCDE",
"> c #95DDDF",
", c #96DDDF",
"< c #98DCE0",
"1 c #99DCE0",
"2 c #98DEE0",
"3 c #99DEE0",
"4 c #9ADEE0",
"5 c #9CDEE1",
"6 c #9DDEE1",
"7 c #9CDFE1",
"8 c #9EDEE1",
"9 c #9EE0E1",
"0 c #9FE1E1",
"q c #9FE1E2",
"w c #A1E1E2",
"e c #A3E0E3",
"r c #A1E2E2",
"t c #A2E2E2",
"y c #A4E2E3",
"u c #A4E3E3",
"i c #A5E3E3",
"p c #A6E3E3",
"a c #A7E1E4",
"s c #A7E3E4",
"d c #A7E4E4",
"f c #A9E2E4",
"g c #A8E4E4",
"h c #A9E4E4",
"j c #AAE4E4",
"k c #ABE5E5",
"l c #ABE6E4",
"z c #AEE7E5",
"x c #AFE4E6",
"c c #AEE6E6",
"v c #B4E5E7",
"b c #B5E6E7",
"n c #B1E8E6",
"m c #B2E8E7",
"M c #B4E9E7",
"N c #B8E7E8",
"B c #BBE7E9",
"V c #B5E9E8",
"C c #B7EAE8",
"Z c #B8EAE9",
"A c #BFE9E9",
"S c #BFE9EA",
"D c #C0E9EA",
"F c #C1E9EA",
"G c #C5EBEB",
"H c #C7EBEC",
"J c #C8EBEC",
"K c #CBEDED",
"L c #CDEDED",
"P c #CCEEED",
"I c #CEEFED",
"U c #CEEDEE",
"Y c #D3EFEF",
"T c #D8F0F0",
"R c #D9F0F0",
"E c #D8F1F0",
"W c #D9F1F0",
"Q c #DBF1F1",
"! c #DEF2F1",
"~ c #DEF2F2",
"^ c #DFF2F2",
"/ c #DFF3F2",
"( c #E0F3F2",
") c #E1F3F2",
"_ c #E3F4F3",
"` c #E4F4F3",
/* pixels */
".........................................................................................................",
".........................................................................................................",
".........................................................................................................",
".........................................................................................................",
".........................................................................................................",
".........................................................................................................",
"......................................................................&77774.............................",
"..................................................................rBL````````YF7.........................",
"...............................................................7F~``````````````Rf.......................",
".............................................................7L````Hz7$.....7zH```L&.....................",
"...........................................................4L```Lf$............7R``~r....................",
"..........................................................b```L7.................b_``f...................",
"........................................................4Y``R7....................7_``7..................",
".......................................................r~``b.......................7``~$.................",
"......................................................z``~7.........................G``b.................",
".....................................................F``Y$..........................4``Y.................",
"....................................................F``F........................$....```.................",
"...................................................F``F.........................LF$.z```.................",
"..................................................F``b..........................R`(L```L.................",
".................................................F``B.$:+......................f```````f.................",
"................................................z``F.$MC:...................LLY```````H..................",
"...............................................f``F.$MCz$...................``````H~Yb...................",
"..............................................4~`Y.$MCz+....................R````B.......................",
"......+rlmmml0+............&rzmmml7+.........$R`R$+MCM+...................4B```Hr........+4lmmmmy,.......",
".....0mmmmmmmmm4.........+rmmmmmmmmz,........L`~4+zCM$...............&zHY`````~.........&lmmmmmmmms+.....",
"...+smml,$.$4lmmy+......$lmms,+.&7zmm0......B``r.yCC:..............A~`````~```L,.......4mmz0&.+:ymmz&....",
".+,zmm7......+rmml,+..+7zmm4......+ymml:...s``B.7CC7.............s(``````````RCmy$...:smml+......:zmmr+..",
"mmmmz:.........,zmmmmmmmml$.........7mmmmmZ(`L.$MCy.............F```Fr77fF~RB$ymmmmmmmmmr+........+lmmmmy",
"mmz0+...........+rzmmmml7+...........$rmmmR`~$.zCm+............F``H&...........,lmmmmms&............,lmmy",
"&$.................$&&+.................&A``7.0CC$............z``F...............+&&&.................+&&",
"........................................r``b.$CC0............4``F........................................",
".......................................&~`L..lCm.............L`Y.........................................",
"......................................$Y`~$.4CC:............7``7.........................................",
"......................................F``7..4Cy.............H`L..........................................",
".....................................f``z...+4.............&``r..........................................",
"....................................4``H...................f`R...........................................",
"...................................&~`Y$...................H`F...........................................",
"..................................$Y`~&....................R`f...........................................",
"..................................L``4.....................``4...........................................",
".................................F``f.....................7``............................................",
"................................F``f......................7`~............................................",
"...............................F``b.......................7`L............................................",
".............................$H``B........................7`L............................................",
"............................&Y``f.........................7`Y............................................",
"...........................7~``f..........................7``............................................",
".........................$B``~4...........................&``............................................",
"........................7R``L$.............................``7...........................................",
"......................7L``~z...............................Y`z...........................................",
"....................rL```L&................................F`H...........................................",
".................7BR```L7..................................f`~...........................................",
"........&..77fbL~````H7....................................$``r..........................................",
".......Y``````````Lz$.......................................H`F..........................................",
".......F`````LLbr$..........................................f``$.........................................",
"....................+4ml+....................................R`b.........................................",
"..................,yMCCm.....................................b`~$........................................",
".............$:0lMCCCMy$.....................................$~`F........................................",
"....4MCzlllMCCCCCCCl4+........................................f``7.......................................",
"....4CCCCCCCCCClr,+............................................L`R$......................................",
".....$:::::::+.................................................4~`F......................................",
"................................................................z``f.....................................",
".................................................................H``4....................................",
".................................................................$Y`~$...................................",
"..................................................................4~`Y$..................................",
"...................................................................7``Y$.................................",
"....................................................................f``Y$................................",
".....................................................................f``Y$...............................",
"......................................................................f``R4..............................",
".......................................................................r~``z.............................",
"........................................................................4Y``L4...........................",
".........................................................................$B```B$.........................",
"...........................................................................7R``~b........................",
".............................................................................z~``Rf$.....................",
"..............................................................................$b```~b&...................",
"................................................................................&F~```Yz4................",
"..................................................................................$bR````~LFbz7..........",
"......$rzCCCl0+......................................................................7BR````````J4.......",
".....7CCCCCCCCM4........................................................................&7bbLL```~l+.....",
"...+lCCm7:::rMCCy+......+yM0...................................................................rKLCM$....",
"..4mCCy+.....+lCCm,...+4MCzo.....................................................................:MCC0$..",
"zCCCM4.........7CCCClzCCCy........................................................................$zCCCmr",
"CCCy$...........$lCCCCCM4...........................................................................0mCCd",
"::................+::::...............................................................................$:&",
".........................................................................................................",
".........................................................................................................",
".........................................................................................................",
".........................................................................................................",
".........................................................................................................",
".........................................................................................................",
".........................................................................................................",
".........................................................................................................",
".........................................................................................................",
".........................................................................................................",
".........................................................................................................",
".........................................................................................................",
".........................................................................................................",
".........................................................................................................",
".........................................................................................................",
".........................................................................................................",
".........................................................................................................",
".........................................................................................................",
".........................................................................................................",
".........................................................................................................",
".........................................................................................................",
".........................................................................................................",
"........................................................................................................ "
};
